<?xml version="1.0" encoding="UTF-8" standalone="no"?>
<!-- 3d_project layerName: body, w:.15 -->

<!-- Created with Inkscape (http://www.inkscape.org/) -->

<svg
   width="300mm"
   height="150mm"
   viewBox="0 0 1062.9921 531.49588"
   id="svg4371"
   version="1.1"
   inkscape:version="1.4.3 (0d15f75042, 2025-12-25)"
   sodipodi:docname="Cabeza-metro.svg"
   xmlns:inkscape="http://www.inkscape.org/namespaces/inkscape"
   xmlns:sodipodi="http://sodipodi.sourceforge.net/DTD/sodipodi-0.dtd"
   xmlns:xlink="http://www.w3.org/1999/xlink"
   xmlns="http://www.w3.org/2000/svg"
   xmlns:svg="http://www.w3.org/2000/svg"
   xmlns:rdf="http://www.w3.org/1999/02/22-rdf-syntax-ns#"
   xmlns:cc="http://creativecommons.org/ns#"
   xmlns:dc="http://purl.org/dc/elements/1.1/">
  <sodipodi:namedview
     id="base"
     pagecolor="#ffffff"
     bordercolor="#666666"
     borderopacity="1.0"
     inkscape:pageopacity="0.0"
     inkscape:pageshadow="2"
     inkscape:zoom="0.37681936"
     inkscape:cx="456.45214"
     inkscape:cy="502.89349"
     inkscape:document-units="px"
     inkscape:current-layer="svg4371"
     showgrid="false"
     inkscape:window-width="1536"
     inkscape:window-height="891"
     inkscape:window-x="0"
     inkscape:window-y="0"
     inkscape:window-maximized="1"
     inkscape:showpageshadow="2"
     inkscape:pagecheckerboard="0"
     inkscape:deskcolor="#d1d1d1" />
  <defs
     id="defs4373" />
  <metadata
     id="metadata4376">
    <rdf:RDF>
      <cc:Work
         rdf:about="">
        <dc:format>image/svg+xml</dc:format>
        <dc:type
           rdf:resource="http://purl.org/dc/dcmitype/StillImage" />
      </cc:Work>
    </rdf:RDF>
  </metadata>
  <g
     inkscape:label="Capa 1"
     inkscape:groupmode="layer"
     id="layer1"
     transform="translate(0,-520.86632)">
    <g
       inkscape:groupmode="layer"
       id="layer4"
       inkscape:label="body"
       transform="translate(0,520.86632)">
      <path
         style="fill:#800000;fill-opacity:1;stroke:none;stroke-width:19.3;stroke-linecap:square;stroke-linejoin:miter;stroke-miterlimit:4;stroke-dasharray:none;stroke-opacity:1"
         d="M 39.8658 754.384 L 913.957 754.384 C 952.432 754.384 1017.01 811.98 1035.93 863.037 C 1043.1 882.379 1046.17 915.178 1027.71 924.37 C 994.876 940.711 951.336 937.896 913.957 937.896 L 39.8658 937.896 C 29.6694 937.896 21.4608 928.558 21.4608 916.959 L 21.4608 775.321 C 21.4608 763.722 29.6694 754.384 39.8658 754.384 Z"
         id="path4226"
         inkscape:connector-curvature="0"
         sodipodi:nodetypes="ssassssss"
         transform="translate(0,-520.86632)" />
    </g>
    <g
       inkscape:groupmode="layer"
       id="layer5"
       inkscape:label="wheels">
      <g
         id="g1">
        <g
           id="g2">
          <path
             d="m 128.277,946.753 c -9.012,0 -17.137,5.429 -20.585,13.755 -3.449,8.326 -1.543,17.909 4.83,24.282 6.372,6.372 15.956,8.279 24.282,4.83 8.326,-3.449 13.755,-11.573 13.755,-20.585 0,-5.91 -2.348,-11.577 -6.527,-15.756 -4.178,-4.178 -9.846,-6.526 -15.755,-6.526 z m 62,0 c -9.012,0 -17.137,5.429 -20.585,13.755 -3.449,8.326 -1.543,17.909 4.83,24.282 6.372,6.372 15.956,8.279 24.282,4.83 8.326,-3.449 13.755,-11.573 13.755,-20.585 0,-5.91 -2.348,-11.577 -6.527,-15.756 -4.178,-4.178 -9.846,-6.526 -15.755,-6.526 z m -55.325,19.081 h 48.649 v 6.401 h -48.649 z"
             style="opacity:1;fill:#000000;fill-opacity:1;stroke:#000000;stroke-width:3.73;stroke-linecap:square;stroke-linejoin:miter;stroke-miterlimit:4;stroke-dasharray:none;stroke-opacity:1"
             id="g4346"
             inkscape:label="back"
             transform="matrix(-1,0,0,1,328.992,-1.86876e-6)"
             sodipodi:nodetypes="scsssssscsssssccccc" />
          <path
             id="path1"
             style="stroke-width:3.41929"
             inkscape:transform-center-x="-0.75136377"
             inkscape:transform-center-y="-2.4992038"
             transform="translate(17.910958,6.2480084)"
             d="m 188.07713,961.00234 -68.18383,-15.7816 31.43816,-12.2076 z"
             sodipodi:nodetypes="cccc" />
        </g>
      </g>
      <use
         x="0"
         y="0"
         xlink:href="#g1"
         id="use2"
         transform="translate(712.49998)" />
    </g>
    <path
       d="M 744.852 767.291 L 776.755 767.291 L 776.755 933.052 L 744.852 933.052 Z"
       style="fill:#ffff00;fill-opacity:1;stroke:none;stroke-width:19.3;stroke-linecap:square;stroke-linejoin:miter;stroke-miterlimit:4;stroke-dasharray:none;stroke-opacity:1"
       id="rect4232" />
    <path
       d="M 708.461 767.291 L 740.364 767.291 L 740.364 933.052 L 708.461 933.052 Z"
       style="fill:#ffff00;fill-opacity:1;stroke:none;stroke-width:19.3;stroke-linecap:square;stroke-linejoin:miter;stroke-miterlimit:4;stroke-dasharray:none;stroke-opacity:1"
       id="rect4234" />
    <path
       d="M 731.048 626.175 L 738.061 626.175 L 738.061 658.209 L 731.048 658.209 Z M 723.048 626.175 L 730.061 626.175 L 730.061 658.209 L 723.048 658.209 Z"
       style="fill:#ffff00;opacity:1;fill-opacity:1;stroke:none;stroke-width:19.3;stroke-linecap:square;stroke-linejoin:miter;stroke-miterlimit:4;stroke-dasharray:none;stroke-opacity:1"
       transform="matrix(4.54884 0 0 5.1746 -3244.7 -2472.92)"
       id="g4236" />
    <path
       d="M 89.1171 611.2 L 127.751 611.2 L 127.751 631.708 L 89.1171 631.708 Z M 89.1171 611.2 L 127.751 611.2 L 127.751 631.708 L 89.1171 631.708 Z M 89.1171 611.2 L 127.751 611.2 L 127.751 631.708 L 89.1171 631.708 Z M 128.964 611.2 L 167.598 611.2 L 167.598 631.708 L 128.964 631.708 Z M 168.811 611.2 L 207.445 611.2 L 207.445 631.708 L 168.811 631.708 Z M 208.658 611.2 L 247.292 611.2 L 247.292 631.708 L 208.658 631.708 Z"
       style="fill:#ffff00;opacity:1;fill-opacity:1;stroke:#000000;stroke-width:1.2123;stroke-linecap:square;stroke-linejoin:miter;stroke-miterlimit:4;stroke-dasharray:none;stroke-opacity:1"
       transform="matrix(-3.73077 0 0 4.62112 1038.23 -2054.66)"
       id="g4354" />
    <path
       style="fill:none;fill-rule:evenodd;stroke:#000000;stroke-width:3.90563px;stroke-linecap:butt;stroke-linejoin:miter;stroke-opacity:1"
       d="M 851.352 830.438 L 850.977 761.854"
       id="path4655"
       inkscape:connector-curvature="0"
       sodipodi:nodetypes="cc" />
    <path
       d="M 818.852 767.291 L 850.755 767.291 L 850.755 933.052 L 818.852 933.052 Z"
       style="fill:#ffff00;fill-opacity:1;stroke:none;stroke-width:19.3;stroke-linecap:square;stroke-linejoin:miter;stroke-miterlimit:4;stroke-dasharray:none;stroke-opacity:1"
       id="rect4269" />
    <path
       sodipodi:nodetypes="csccscc"
       inkscape:connector-curvature="0"
       id="path4271"
       d="M 856.076 771.436 C 856.076 771.436 900.928 771.425 922.141 771.495 C 945.799 771.573 967.833 799.809 978.335 812.066 C 984.334 819.979 995.523 838.52 992.009 846.652 C 990.535 850.023 985.95 854.64 981.553 854.696 C 933.911 855.294 897.677 854.696 856.076 854.696 Z"
       style="fill:#ffff01;fill-opacity:1;fill-rule:evenodd;stroke:#ffff00;stroke-width:1px;stroke-linecap:butt;stroke-linejoin:miter;stroke-opacity:1" />
  </g>
</svg>
