<?xml version="1.0" encoding="UTF-8" standalone="no"?>
<!-- 3d_project layerName: EXTRUDE, w:.37 -->

<!-- 3d_project layerName: rubber , w:.05, nearAndFar: on, zStepAdd:1 -->

<!-- texture layerName: frontside, ref:EXTRUDE, side: right -->

<!-- texture layerName: backside, ref:EXTRUDE, side: left -->

<!-- Generator: Adobe Illustrator 21.0.0, SVG Export Plug-In . SVG Version: 6.00 Build 0)  -->

<svg
   version="1.1"
   id="Capa_1"
   x="0px"
   y="0px"
   viewBox="0 0 512 512"
   style="enable-background:new 0 0 512 512;"
   xml:space="preserve"
   sodipodi:docname="da-bus.svg"
   inkscape:version="1.4.3 (0d15f75042, 2025-12-25)"
   xmlns:inkscape="http://www.inkscape.org/namespaces/inkscape"
   xmlns:sodipodi="http://sodipodi.sourceforge.net/DTD/sodipodi-0.dtd"
   xmlns="http://www.w3.org/2000/svg"
   xmlns:svg="http://www.w3.org/2000/svg"><defs
   id="defs36" /><sodipodi:namedview
   id="namedview36"
   pagecolor="#ffffff"
   bordercolor="#000000"
   borderopacity="0.25"
   inkscape:showpageshadow="2"
   inkscape:pageopacity="0.0"
   inkscape:pagecheckerboard="0"
   inkscape:deskcolor="#d1d1d1"
   showgrid="false"
   inkscape:zoom="0.87145388"
   inkscape:cx="359.74365"
   inkscape:cy="87.784336"
   inkscape:window-width="1536"
   inkscape:window-height="891"
   inkscape:window-x="26"
   inkscape:window-y="23"
   inkscape:window-maximized="0"
   inkscape:current-layer="g13" />
<g
   inkscape:groupmode="layer"
   id="layer1"
   inkscape:label="EXTRUDE"><path
     style="enable-background:new 0 0 512 512;fill:#FFEA06"
     d="M512,183.518V325.38c0,15.367-12.461,27.829-27.829,27.829H27.829C12.461,353.209,0,340.747,0,325.38  V151.459c0-13.826,7.353-25.936,18.366-32.637c5.77-3.516,12.554-5.533,19.804-5.533h403.602  C480.562,113.289,512,144.727,512,183.518z"
     id="path1" /></g>
<path
   style="fill:#ffffff;fill-opacity:0.496827;stroke-width:0.960826"
   d="m 505.68871,192.44641 v 127.18793 c -2.92018,1.00621 -6.06446,1.54766 -9.35189,1.54766 H 45.828204 C 30.657672,321.182 18.355,309.52918 18.355,295.15789 V 132.5168 c 0,-0.19357 0,-0.38715 0.0099,-0.57044 0.03041,-5.86985 12.393496,-5.17415 19.550804,-5.17415 H 436.35759 c 38.29506,0 69.33112,29.39905 69.33112,65.6742 z"
   id="path2"
   sodipodi:nodetypes="scsssscsss" /><g
   inkscape:groupmode="layer"
   id="layer3"
   inkscape:label="rubber"><circle
     style="enable-background:new 0 0 512 512;fill:#5A5555"
     cx="401.958"
     cy="353.209"
     r="45.502"
     id="circle4" /><circle
     style="enable-background:new 0 0 512 512;fill:#5A5555"
     cx="110.042"
     cy="353.209"
     r="45.502"
     id="circle2" /></g>

<circle
   style="fill:#9B9696;"
   cx="110.042"
   cy="353.209"
   r="19.131"
   id="circle3" />

<circle
   style="fill:#9B9696;"
   cx="401.958"
   cy="353.209"
   r="19.131"
   id="circle5" />
<g
   id="g6">
	<path
   style="fill:#FF883E;"
   d="M45.037,292.174v19.39c0,5.874-4.767,10.641-10.641,10.641H0v-40.673h34.395   C40.269,281.533,45.037,286.29,45.037,292.174z"
   id="path5" />
	<path
   style="fill:#FF883E;"
   d="M512,281.533v40.673h-22.958c-5.874,0-10.641-4.767-10.641-10.641v-19.39   c0-5.884,4.767-10.641,10.641-10.641H512z"
   id="path6" />
</g>
<g
   id="g8">
	<path
   style="fill:#65B1CF;"
   d="M378.286,154.231V236.3c0,5.326-4.312,9.638-9.638,9.638H36.691c-5.315,0-9.638-4.312-9.638-9.638   v-82.069c0-5.326,4.323-9.638,9.638-9.638h331.957C373.974,144.593,378.286,148.905,378.286,154.231z"
   id="path7" />
	<path
   style="fill:#65B1CF;"
   d="M484.854,188.15v47.436c0,5.719-4.633,10.352-10.352,10.352h-51.49   c-9.421,0-17.063-7.642-17.063-17.063v-74.23c0-5.719,4.633-10.352,10.352-10.352h24.706   C465.226,144.293,484.854,163.921,484.854,188.15z"
   id="path8" />
</g>
<g
   id="g10">
	<path
   style="fill:#7FBED7;"
   d="M378.286,154.231v68.956H63.206c-5.315,0-9.638-4.312-9.638-9.638v-68.956h315.08   C373.974,144.593,378.286,148.905,378.286,154.231z"
   id="path9" />
	<path
   style="fill:#7FBED7;"
   d="M484.854,188.15v35.036h-35.326c-9.421,0-17.063-7.642-17.063-17.063v-61.831h8.542   C465.226,144.293,484.854,163.921,484.854,188.15z"
   id="path10" />
</g>
<g
   id="g12">
	<rect
   x="107.364"
   y="144.593"
   style="fill:#3993B7;"
   width="15.512"
   height="101.345"
   id="rect10" />
	<rect
   x="194.914"
   y="144.593"
   style="fill:#3993B7;"
   width="15.512"
   height="101.345"
   id="rect11" />
	<rect
   x="282.474"
   y="144.593"
   style="fill:#3993B7;"
   width="15.512"
   height="101.345"
   id="rect12" />
</g>
<g
   id="g21">
	<path
   style="fill:#C0DFEB;"
   d="M59.7,191.646c-1.985,0-3.97-0.757-5.484-2.271c-3.029-3.03-3.029-7.94,0-10.969l17.063-17.063   c3.029-3.028,7.94-3.028,10.968,0c3.029,3.03,3.029,7.94,0,10.969l-17.063,17.063C63.67,190.888,61.685,191.646,59.7,191.646z"
   id="path12" />
	<path
   style="fill:#C0DFEB;"
   d="M56.008,230.943c-1.985,0-3.97-0.757-5.484-2.271c-3.029-3.03-3.029-7.94,0-10.969l17.063-17.063   c3.029-3.028,7.94-3.028,10.968,0c3.029,3.03,3.029,7.94,0,10.969l-17.063,17.063C59.978,230.185,57.992,230.943,56.008,230.943z"
   id="path13" />
	<path
   style="fill:#C0DFEB;"
   d="M147.014,200.027c-1.986,0-3.971-0.757-5.486-2.273c-3.028-3.03-3.027-7.94,0.003-10.968   l29.875-29.861c3.029-3.029,7.94-3.028,10.969,0.003c3.028,3.03,3.027,7.94-0.003,10.968l-29.875,29.861   C150.983,199.272,148.998,200.027,147.014,200.027z"
   id="path14" />
	<path
   style="fill:#C0DFEB;"
   d="M153.621,228.129c-1.985,0-3.97-0.757-5.484-2.271c-3.029-3.03-3.029-7.94,0-10.969l11.435-11.435   c3.029-3.028,7.94-3.028,10.968,0c3.029,3.03,3.029,7.94,0,10.969l-11.435,11.435C157.591,227.372,155.605,228.129,153.621,228.129   z"
   id="path15" />
	<path
   style="fill:#C0DFEB;"
   d="M235.303,231.853c-1.986,0-3.971-0.757-5.486-2.273c-3.028-3.03-3.027-7.94,0.003-10.968   l29.875-29.861c3.03-3.029,7.94-3.028,10.969,0.003c3.028,3.03,3.027,7.94-0.003,10.968l-29.875,29.861   C239.272,231.096,237.287,231.853,235.303,231.853z"
   id="path16" />
	<path
   style="fill:#C0DFEB;"
   d="M432.465,231.624c-1.986,0-3.971-0.757-5.486-2.273c-3.028-3.03-3.027-7.94,0.003-10.968   l29.875-29.861c3.029-3.029,7.94-3.028,10.969,0.003c3.028,3.03,3.027,7.94-0.003,10.968l-29.875,29.861   C436.434,230.867,434.449,231.624,432.465,231.624z"
   id="path17" />
	<path
   style="fill:#C0DFEB;"
   d="M329.021,198.044c-1.986,0-3.971-0.757-5.486-2.273c-3.028-3.03-3.027-7.94,0.003-10.968   l29.875-29.861c3.03-3.029,7.94-3.028,10.969,0.003c3.028,3.03,3.027,7.94-0.003,10.968l-29.875,29.861   C332.99,197.288,331.006,198.044,329.021,198.044z"
   id="path18" />
	<path
   style="fill:#C0DFEB;"
   d="M323.447,237.341c-1.986,0-3.971-0.757-5.486-2.273c-3.028-3.03-3.027-7.94,0.003-10.968   l29.875-29.861c3.028-3.028,7.939-3.029,10.968,0.003c3.028,3.03,3.027,7.94-0.003,10.968l-29.875,29.861   C327.416,236.585,325.432,237.341,323.447,237.341z"
   id="path19" />
	<path
   style="fill:#C0DFEB;"
   d="M247.135,185.325c-1.985,0-3.97-0.757-5.484-2.271c-3.029-3.03-3.029-7.94,0-10.969l11.435-11.435   c3.029-3.028,7.94-3.028,10.968,0c3.029,3.03,3.029,7.94,0,10.969l-11.435,11.435C251.105,184.568,249.121,185.325,247.135,185.325   z"
   id="path20" />
	<path
   style="fill:#C0DFEB;"
   d="M426.747,185.325c-1.984,0-3.97-0.757-5.484-2.271c-3.029-3.03-3.029-7.94,0-10.969l11.435-11.435   c3.029-3.028,7.94-3.028,10.968,0c3.029,3.03,3.029,7.94,0,10.969l-11.435,11.435C430.717,184.568,428.733,185.325,426.747,185.325   z"
   id="path21" />
</g>
<g
   id="g22">
</g>
<g
   id="g23">
</g>
<g
   id="g24">
</g>
<g
   id="g25">
</g>
<g
   id="g26">
</g>
<g
   id="g27">
</g>
<g
   id="g28">
</g>
<g
   id="g29">
</g>
<g
   id="g30">
</g>
<g
   id="g31">
</g>
<g
   id="g32">
</g>
<g
   id="g33">
</g>
<g
   id="g34">
</g>
<g
   id="g35">
</g>
<g
   id="g36">
</g>
<g
   inkscape:groupmode="layer"
   id="layer2"
   inkscape:label="frontside"><g
     id="g40"
     transform="translate(116.81685,20)"
     inkscape:label="glass"
     style="enable-background:new 0 0 512 512;fill:#f9f9f9;fill-opacity:0.34161314">
	
	<path
   id="path39"
   style="fill:#f9f9f9;fill-opacity:0.34161314"
   d="m 416.30078,144.29297 c -5.719,0 -10.35156,4.63256 -10.35156,10.35156 V 228.875 c 0,9.421 7.6415,17.0625 17.0625,17.0625 h 51.49023 c 0.30306,0 0.60396,-0.0116 0.90039,-0.0371 0.29644,0.0255 0.59538,0.0371 0.89844,0.0371 h 51.49024 c 9.421,0 17.0625,-7.6415 17.0625,-17.0625 v -74.23047 c 0,-5.719 -4.63257,-10.35156 -10.35157,-10.35156 h -24.70507 -68.78907 z"
   sodipodi:nodetypes="ssssscssssssss" />
</g><g
     id="g37"
     transform="translate(116.81685)"
     inkscape:label="glass">
	
	<path
   id="path22"
   style="fill:#65b1cf"
   d="m 416.30078,144.29297 c -5.719,0 -10.35156,4.63256 -10.35156,10.35156 V 228.875 c 0,9.421 7.6415,17.0625 17.0625,17.0625 h 51.49023 c 0.30306,0 0.60396,-0.0116 0.90039,-0.0371 0.29644,0.0255 0.59538,0.0371 0.89844,0.0371 h 51.49024 c 9.421,0 17.0625,-7.6415 17.0625,-17.0625 v -74.23047 c 0,-5.719 -4.63257,-10.35156 -10.35157,-10.35156 h -24.70507 -68.78907 z"
   sodipodi:nodetypes="ssssscssssssss" />
</g><g
     id="g39"><g
       id="g4"
       transform="matrix(-1,0,0,1,1026.401,0)">
	
	<path
   style="fill:#ff883e"
   d="m 508,281.533 v 40.673 h -2.958 c -5.874,0 -10.641,-4.767 -10.641,-10.641 v -19.39 c 0,-5.884 4.767,-10.641 10.641,-10.641 H 508 Z"
   id="path4"
   sodipodi:nodetypes="ccsssscc" />
</g><ellipse
       style="fill:#f9f9f9;fill-opacity:1;stroke-width:3.4446"
       id="path37"
       cx="553.00787"
       cy="300.62756"
       rx="13.027564"
       ry="14.199683"
       inkscape:label="lykt" /><g
       id="g38"
       transform="translate(158.03544)">
	
	<path
   style="fill:#ff883e"
   d="m 508,281.533 v 40.673 h -2.958 c -5.874,0 -10.641,-4.767 -10.641,-10.641 v -19.39 c 0,-5.884 4.767,-10.641 10.641,-10.641 H 508 Z"
   id="path38"
   sodipodi:nodetypes="ccsssscc" />
</g><ellipse
       style="fill:#f9f9f9;fill-opacity:1;stroke-width:3.4446"
       id="ellipse38"
       cx="-631.42859"
       cy="300.62756"
       rx="13.027564"
       ry="14.199683"
       inkscape:label="lykt"
       transform="scale(-1,1)" /></g></g><g
   inkscape:groupmode="layer"
   id="layer-backside"
   inkscape:label="backside"><g
     id="g13"
     transform="translate(-680)"
     style="enable-background:new 0 0 512 512"><g
       id="g3"
       transform="matrix(-1,0,0,1,1026.401,0)">
	
	<path
   style="fill:#ff883e"
   d="m 508,281.533 v 40.673 h -2.958 c -5.874,0 -10.641,-4.767 -10.641,-10.641 v -19.39 c 0,-5.884 4.767,-10.641 10.641,-10.641 H 508 Z"
   id="path3"
   sodipodi:nodetypes="ccsssscc" />
</g><ellipse
       style="fill:#ff0000;fill-opacity:1;stroke-width:3.4446"
       id="ellipse3"
       cx="553.00787"
       cy="300.62756"
       rx="13.027564"
       ry="14.199683"
       inkscape:label="lykt" /><g
       id="g11"
       transform="translate(158.03544)">
	
	<path
   style="fill:#ff883e"
   d="m 508,281.533 v 40.673 h -2.958 c -5.874,0 -10.641,-4.767 -10.641,-10.641 v -19.39 c 0,-5.884 4.767,-10.641 10.641,-10.641 H 508 Z"
   id="path11"
   sodipodi:nodetypes="ccsssscc" />
</g><ellipse
       style="fill:#ff0000;fill-opacity:1;stroke-width:3.4446"
       id="ellipse11"
       cx="-631.42859"
       cy="300.62756"
       rx="13.027564"
       ry="14.199683"
       inkscape:label="lykt"
       transform="scale(-1,1)" /></g></g></svg>
