<?xml version="1.0" encoding="UTF-8" standalone="no"?>
<!-- 3d_project layerName: EXTRUDE, w:.37 -->
<!-- 3d_project layerName: rubber , w:.05, nearAndFar: on, zStepAdd:1 -->

<!-- Generator: Adobe Illustrator 21.0.0, SVG Export Plug-In . SVG Version: 6.00 Build 0)  -->

<svg
   version="1.1"
   id="Capa_1"
   x="0px"
   y="0px"
   viewBox="0 0 512 512"
   style="enable-background:new 0 0 512 512;"
   xml:space="preserve"
   sodipodi:docname="da-bus.svg"
   inkscape:version="1.4.3 (0d15f75042, 2025-12-25)"
   xmlns:inkscape="http://www.inkscape.org/namespaces/inkscape"
   xmlns:sodipodi="http://sodipodi.sourceforge.net/DTD/sodipodi-0.dtd"
   xmlns="http://www.w3.org/2000/svg"
   xmlns:svg="http://www.w3.org/2000/svg"><defs
   id="defs36" /><sodipodi:namedview
   id="namedview36"
   pagecolor="#ffffff"
   bordercolor="#000000"
   borderopacity="0.25"
   inkscape:showpageshadow="2"
   inkscape:pageopacity="0.0"
   inkscape:pagecheckerboard="0"
   inkscape:deskcolor="#d1d1d1"
   showgrid="false"
   inkscape:zoom="1.2324219"
   inkscape:cx="255.59429"
   inkscape:cy="255.99999"
   inkscape:window-width="1536"
   inkscape:window-height="891"
   inkscape:window-x="0"
   inkscape:window-y="0"
   inkscape:window-maximized="1"
   inkscape:current-layer="layer3" />
<g
   inkscape:groupmode="layer"
   id="layer1"
   inkscape:label="EXTRUDE"><path
     style="enable-background:new 0 0 512 512;fill:#FFEA06"
     d="M512,183.518V325.38c0,15.367-12.461,27.829-27.829,27.829H27.829C12.461,353.209,0,340.747,0,325.38  V151.459c0-13.826,7.353-25.936,18.366-32.637c5.77-3.516,12.554-5.533,19.804-5.533h403.602  C480.562,113.289,512,144.727,512,183.518z"
     id="path1" /></g>
<path
   style="fill:#FFF36C;"
   d="M512,183.518v136.009c-2.958,1.076-6.143,1.655-9.473,1.655H46.184  c-15.367,0-27.829-12.461-27.829-27.829V119.432c0-0.207,0-0.414,0.01-0.61c5.77-3.516,12.554-5.533,19.804-5.533h403.602  C480.562,113.289,512,144.727,512,183.518z"
   id="path2" /><g
   inkscape:groupmode="layer"
   id="layer3"
   inkscape:label="rubber"><circle
     style="enable-background:new 0 0 512 512;fill:#5A5555"
     cx="401.958"
     cy="353.209"
     r="45.502"
     id="circle4" /><circle
     style="enable-background:new 0 0 512 512;fill:#5A5555"
     cx="110.042"
     cy="353.209"
     r="45.502"
     id="circle2" /></g>

<circle
   style="fill:#9B9696;"
   cx="110.042"
   cy="353.209"
   r="19.131"
   id="circle3" />

<circle
   style="fill:#9B9696;"
   cx="401.958"
   cy="353.209"
   r="19.131"
   id="circle5" />
<g
   id="g6">
	<path
   style="fill:#FF883E;"
   d="M45.037,292.174v19.39c0,5.874-4.767,10.641-10.641,10.641H0v-40.673h34.395   C40.269,281.533,45.037,286.29,45.037,292.174z"
   id="path5" />
	<path
   style="fill:#FF883E;"
   d="M512,281.533v40.673h-22.958c-5.874,0-10.641-4.767-10.641-10.641v-19.39   c0-5.884,4.767-10.641,10.641-10.641H512z"
   id="path6" />
</g>
<g
   id="g8">
	<path
   style="fill:#65B1CF;"
   d="M378.286,154.231V236.3c0,5.326-4.312,9.638-9.638,9.638H36.691c-5.315,0-9.638-4.312-9.638-9.638   v-82.069c0-5.326,4.323-9.638,9.638-9.638h331.957C373.974,144.593,378.286,148.905,378.286,154.231z"
   id="path7" />
	<path
   style="fill:#65B1CF;"
   d="M484.854,188.15v47.436c0,5.719-4.633,10.352-10.352,10.352h-51.49   c-9.421,0-17.063-7.642-17.063-17.063v-74.23c0-5.719,4.633-10.352,10.352-10.352h24.706   C465.226,144.293,484.854,163.921,484.854,188.15z"
   id="path8" />
</g>
<g
   id="g10">
	<path
   style="fill:#7FBED7;"
   d="M378.286,154.231v68.956H63.206c-5.315,0-9.638-4.312-9.638-9.638v-68.956h315.08   C373.974,144.593,378.286,148.905,378.286,154.231z"
   id="path9" />
	<path
   style="fill:#7FBED7;"
   d="M484.854,188.15v35.036h-35.326c-9.421,0-17.063-7.642-17.063-17.063v-61.831h8.542   C465.226,144.293,484.854,163.921,484.854,188.15z"
   id="path10" />
</g>
<g
   id="g12">
	<rect
   x="107.364"
   y="144.593"
   style="fill:#3993B7;"
   width="15.512"
   height="101.345"
   id="rect10" />
	<rect
   x="194.914"
   y="144.593"
   style="fill:#3993B7;"
   width="15.512"
   height="101.345"
   id="rect11" />
	<rect
   x="282.474"
   y="144.593"
   style="fill:#3993B7;"
   width="15.512"
   height="101.345"
   id="rect12" />
</g>
<g
   id="g21">
	<path
   style="fill:#C0DFEB;"
   d="M59.7,191.646c-1.985,0-3.97-0.757-5.484-2.271c-3.029-3.03-3.029-7.94,0-10.969l17.063-17.063   c3.029-3.028,7.94-3.028,10.968,0c3.029,3.03,3.029,7.94,0,10.969l-17.063,17.063C63.67,190.888,61.685,191.646,59.7,191.646z"
   id="path12" />
	<path
   style="fill:#C0DFEB;"
   d="M56.008,230.943c-1.985,0-3.97-0.757-5.484-2.271c-3.029-3.03-3.029-7.94,0-10.969l17.063-17.063   c3.029-3.028,7.94-3.028,10.968,0c3.029,3.03,3.029,7.94,0,10.969l-17.063,17.063C59.978,230.185,57.992,230.943,56.008,230.943z"
   id="path13" />
	<path
   style="fill:#C0DFEB;"
   d="M147.014,200.027c-1.986,0-3.971-0.757-5.486-2.273c-3.028-3.03-3.027-7.94,0.003-10.968   l29.875-29.861c3.029-3.029,7.94-3.028,10.969,0.003c3.028,3.03,3.027,7.94-0.003,10.968l-29.875,29.861   C150.983,199.272,148.998,200.027,147.014,200.027z"
   id="path14" />
	<path
   style="fill:#C0DFEB;"
   d="M153.621,228.129c-1.985,0-3.97-0.757-5.484-2.271c-3.029-3.03-3.029-7.94,0-10.969l11.435-11.435   c3.029-3.028,7.94-3.028,10.968,0c3.029,3.03,3.029,7.94,0,10.969l-11.435,11.435C157.591,227.372,155.605,228.129,153.621,228.129   z"
   id="path15" />
	<path
   style="fill:#C0DFEB;"
   d="M235.303,231.853c-1.986,0-3.971-0.757-5.486-2.273c-3.028-3.03-3.027-7.94,0.003-10.968   l29.875-29.861c3.03-3.029,7.94-3.028,10.969,0.003c3.028,3.03,3.027,7.94-0.003,10.968l-29.875,29.861   C239.272,231.096,237.287,231.853,235.303,231.853z"
   id="path16" />
	<path
   style="fill:#C0DFEB;"
   d="M432.465,231.624c-1.986,0-3.971-0.757-5.486-2.273c-3.028-3.03-3.027-7.94,0.003-10.968   l29.875-29.861c3.029-3.029,7.94-3.028,10.969,0.003c3.028,3.03,3.027,7.94-0.003,10.968l-29.875,29.861   C436.434,230.867,434.449,231.624,432.465,231.624z"
   id="path17" />
	<path
   style="fill:#C0DFEB;"
   d="M329.021,198.044c-1.986,0-3.971-0.757-5.486-2.273c-3.028-3.03-3.027-7.94,0.003-10.968   l29.875-29.861c3.03-3.029,7.94-3.028,10.969,0.003c3.028,3.03,3.027,7.94-0.003,10.968l-29.875,29.861   C332.99,197.288,331.006,198.044,329.021,198.044z"
   id="path18" />
	<path
   style="fill:#C0DFEB;"
   d="M323.447,237.341c-1.986,0-3.971-0.757-5.486-2.273c-3.028-3.03-3.027-7.94,0.003-10.968   l29.875-29.861c3.028-3.028,7.939-3.029,10.968,0.003c3.028,3.03,3.027,7.94-0.003,10.968l-29.875,29.861   C327.416,236.585,325.432,237.341,323.447,237.341z"
   id="path19" />
	<path
   style="fill:#C0DFEB;"
   d="M247.135,185.325c-1.985,0-3.97-0.757-5.484-2.271c-3.029-3.03-3.029-7.94,0-10.969l11.435-11.435   c3.029-3.028,7.94-3.028,10.968,0c3.029,3.03,3.029,7.94,0,10.969l-11.435,11.435C251.105,184.568,249.121,185.325,247.135,185.325   z"
   id="path20" />
	<path
   style="fill:#C0DFEB;"
   d="M426.747,185.325c-1.984,0-3.97-0.757-5.484-2.271c-3.029-3.03-3.029-7.94,0-10.969l11.435-11.435   c3.029-3.028,7.94-3.028,10.968,0c3.029,3.03,3.029,7.94,0,10.969l-11.435,11.435C430.717,184.568,428.733,185.325,426.747,185.325   z"
   id="path21" />
</g>
<g
   id="g22">
</g>
<g
   id="g23">
</g>
<g
   id="g24">
</g>
<g
   id="g25">
</g>
<g
   id="g26">
</g>
<g
   id="g27">
</g>
<g
   id="g28">
</g>
<g
   id="g29">
</g>
<g
   id="g30">
</g>
<g
   id="g31">
</g>
<g
   id="g32">
</g>
<g
   id="g33">
</g>
<g
   id="g34">
</g>
<g
   id="g35">
</g>
<g
   id="g36">
</g>
</svg>
