<?xml version="1.0" encoding="UTF-8" standalone="no"?>
<!-- 3d_project layerName: body, w:.15 -->
<!-- 3d_project layerName: wheels , w:.05, nearAndFar: on, zStepAdd:1 -->
<svg
   height="766pt"
   width="1396pt"
   version="1.1"
   viewBox="0 0 1396 766"
   id="svg5"
   sodipodi:docname="RailwayCarriageColour.svg"
   inkscape:version="1.4.3 (0d15f75042, 2025-12-25)"
   xmlns:inkscape="http://www.inkscape.org/namespaces/inkscape"
   xmlns:sodipodi="http://sodipodi.sourceforge.net/DTD/sodipodi-0.dtd"
   xmlns="http://www.w3.org/2000/svg"
   xmlns:svg="http://www.w3.org/2000/svg">
  <defs
     id="defs5" />
  <sodipodi:namedview
     id="namedview5"
     pagecolor="#ffffff"
     bordercolor="#000000"
     borderopacity="0.25"
     inkscape:showpageshadow="2"
     inkscape:pageopacity="0.0"
     inkscape:pagecheckerboard="0"
     inkscape:deskcolor="#d1d1d1"
     inkscape:document-units="pt"
     inkscape:zoom="0.43551086"
     inkscape:cx="856.46545"
     inkscape:cy="471.85965"
     inkscape:window-width="1536"
     inkscape:window-height="891"
     inkscape:window-x="0"
     inkscape:window-y="0"
     inkscape:window-maximized="1"
     inkscape:current-layer="g5" />
  <path
     id="path5"
     style="display:inline;fill:#005300;fill-opacity:1"
     inkscape:label="body"
     d="M 32.36389,0.56213377 C 16.68889,2.4496338 3.475,13.873669 0,29.461669 v 42.062987 c 2.825,11.125 10.899535,18.774974 19.524535,25.599974 1.013,154.76 0.363111,309.82124 0.313111,464.66124 -27.5000006,22.66 -16.5502927,62.93942 -15.3002927,93.53942 9.2629997,29.4 43.6873997,26.19966 67.7123997,24.77966 1.588,44.81 -1.775366,89.90984 1.499634,134.58984 4.37308,13.64978 13.919959,19.93103 25.394896,22.68311 h 83.333127 c -3.65998,-15.89147 -3.87237,-32.56133 -0.0146,-48.56873 9.9,-46.62 53.00096,-83.56941 100.74096,-85.64941 2.69,-0.23 5.38862,-0.35071 8.07862,-0.36071 40.34,-0.12 79.68098,24.72087 97.51098,60.90087 11.44962,22.55189 14.32856,49.03902 8.96118,73.67798 h 113.96484 c -4.12655,-18.81031 -3.18352,-38.69096 4.37439,-57.5885 14.39,-42.57 56.62875,-74.11081 101.84875,-74.08081 1.74,-0.08 3.48118,-0.11986 5.21118,-0.10986 53.77,0.31 102.98007,45.48993 106.95007,99.42993 1.48632,10.95611 1.01267,21.84622 -1.11694,32.34924 h 268.86657 c -4.68406,-21.45716 -3.18256,-44.19107 6.04979,-64.76807 15,-35.72 49.4001,-62.80096 88.2001,-66.99096 5,-0.78 9.9993,-1.17004 14.8993,-1.17004 58.3,-0.06 111.7005,52.43039 109.2004,111.91039 0.1725,7.16521 -0.4684,14.19473 -1.8292,21.01868 h 112.9779 c -0.1682,-1.08764 -0.3175,-2.17975 -0.4486,-3.27759 -10.9,-60.06 37.2996,-121.25022 97.6996,-125.98022 4.3,-0.55 8.5998,-0.81101 12.8998,-0.79101 50.5,0.22 98.4999,39.1904 106.7999,89.6704 3.0483,13.45063 3.057,27.15347 0.5382,40.37842 h 111.5845 c 14.0569,-4.03466 25.2325,-18.03538 24.5746,-32.86194 1.1,-41.39 -0.8005,-82.82043 0.6995,-124.20043 23.1,3.77 55.0002,-2.12084 59.0002,-29.86084 -2.4,-28.94 12.7015,-71.35937 -19.6985,-88.35937 -1.7,-154.2 -1.7011,-309.77967 0.099,-464.049669 11.8,-4.34 20.9007,-14.064612 23.9007,-26.427612 V 28.267821 c -4,-14.95 -17.1003,-26.8627917 -32.9003,-27.48779173 C 1152.2002,1.4179293 592.20051,1.8676269 32.400511,0.56762693 Z"
     transform="scale(0.80000003)"
     sodipodi:nodetypes="cccccccccccccccccccccccccccccccccccccccccccc" />
  <path
     d="m 231.38,558.66 c -43.292,-0.50181 -83.7,34.018 -90.037,76.838 -6.4198,37.452 12.743,77.941 46.566,95.686 30.581,17.35 70.744,14.185 98.818,-6.7012 29.207,-20.527 42.966,-59.295 34.992,-93.85 -8.233,-41.491 -48.219,-72.94 -90.34,-71.973 z m 653.82,1.2969 c -36.006,-0.35924 -70.699,22.395 -84.9,55.432 -14.089,30.393 -8.0692,67.778 12.443,93.795 12.846,17.098 32.112,28.592 52.902,33.106 47.586,11.336 99.579,-23.397 109.23,-70.967 5.7076,-26.766 -1.0101,-55.988 -18.91,-76.885 -17.197,-20.857 -43.455,-34.725 -70.764,-34.48 z m -393.06,0.92383 c -38.329,1.1643 -73.521,29.286 -84.227,65.941 -14.908,44.383 12.837,95.793 55.744,112.13 28.715,11.127 63.15,6.3505 87.453,-12.711 26.127,-19.491 41.712,-53.249 36.311,-85.821 -5.069,-44.104 -46.508,-80.446 -90.896,-79.561 -1.4614,-0.0412 -2.9239,-0.0182 -4.385,0.0221 z m 656.57,1.3848 c -34.152,-0.47617 -66.746,20.481 -81.933,50.808 -17.345,32.287 -11.802,74.947 13.1,101.8 22.132,25.026 58.235,37.626 90.864,28.787 44.231,-10.014 76.165,-56.738 69.283,-101.57 -3.6555,-29.78 -23.279,-56.45 -49.965,-69.846 -12.732,-6.5343 -27.01,-10.181 -41.35,-9.9883 z m -652.08,52.572 c 20.107,-1.0371 38.046,18.553 34.842,38.598 -1.7634,21.296 -26.696,36.149 -46.154,27.793 -14.835,-5.5372 -24.647,-21.826 -21.594,-37.566 2.2465,-15.744 17.022,-28.64 32.906,-28.824 z m 654.62,1.3984 c 23.72,0.0533 41.442,29.323 29.404,50.137 -8.3031,18.647 -34.113,23.593 -50.328,12.525 -15.995,-9.9018 -19.375,-34.002 -7.6367,-48.492 6.5368,-9.311 17.431,-14.307 28.56,-14.17 z m -919.31,0.29688 c 21.767,-1.2814 40.362,21.826 34.145,42.82 -4.2719,17.585 -23.667,29.988 -41.369,24.879 -16.841,-4.0931 -29.23,-21.73 -25.826,-39.025 2.672,-15.576 17.083,-28.568 33.051,-28.674 z m 654.19,1.4473 c 23.807,-0.12014 42.409,29.342 29.83,50.316 -9.8875,20.741 -41.534,24.305 -56.352,7.0547 -9.2915,-10.366 -11.409,-26.198 -4.5586,-38.441 5.7706,-11.878 17.942,-19.046 31.08,-18.93 z"
     fill="#ff6600"
     id="path1"
     inkscape:label="wheels"
     style="display:inline" />
  <g
     id="g5"
     style="display:inline">
    <path
       d="m 614.62,61.982 c -191.49,0.01546 -382.97,0.05175 -574.46,0.08789 -0.30644,137.27 -0.15243,274.54 -0.0957,411.81 436.93,0.23117 873.85,0.12595 1310.8,0.0508 0.2988,-137.27 0.1451,-274.54 0.1,-411.81 -245.5,-0.129 -490.94,-0.151 -736.38,-0.14 z m 334.92,30.982 c 31.799,-0.0039 63.598,0.03213 95.396,0.16992 0.072,58.27 0.1848,116.54 -0.043,174.81 -63.608,0.0481 -127.22,0.2008 -190.82,-0.0801 -0.0725,-58.27 -0.18481,-116.54 0.043,-174.81 l 95.428,-0.08984 z m 255.99,0.0078 c 31.804,-0.0065 63.607,0.02716 95.41,0.16211 0.077,57.933 0.1481,115.87 -0.022,173.8 -63.615,0.0596 -127.23,0.20505 -190.85,-0.0684 -0.089,-57.933 -0.1546,-115.87 0.022,-173.8 l 95.436,-0.09375 z m -501,1 c 31.803,-0.0065 63.607,0.02716 95.41,0.16211 0.0801,57.933 0.14297,115.87 -0.0215,173.8 -63.615,0.0596 -127.23,0.20505 -190.85,-0.0684 -0.0881,-57.933 -0.15663,-115.87 0.0215,-173.8 l 95.436,-0.09375 z m -504.99,0.99219 c 31.799,-0.0039 63.598,0.03213 95.396,0.16992 0.071,58.27 0.18445,116.54 -0.043,174.81 -63.608,0.0481 -127.22,0.2008 -190.82,-0.0801 -0.071,-58.27 -0.18445,-116.54 0.043,-174.81 l 95.428,-0.08984 z m 255.99,0.0078 c 31.803,-0.0065 63.607,0.02716 95.41,0.16211 0.0801,57.933 0.14297,115.87 -0.0215,173.8 -63.615,0.0596 -127.23,0.20505 -190.85,-0.0684 -0.0881,-57.933 -0.15663,-115.87 0.0215,-173.8 l 95.436,-0.09375 z"
       fill="#019934"
       id="path3"
       inkscape:label="overlay-grad"
       sodipodi:nodetypes="ccccccccccccccscccccsscccccscccccccscccccs"
       style="display:inline;mix-blend-mode:normal;fill:#f9f9f9;fill-opacity:0.56322676" />
    <path
       d="m 529.18,30.379 c -168.63,0.03235 -337.26,0.08462 -505.88,0.15039 1.354,9.8935 -2.927,20.741 2.7305,29.848 447.73,0.44714 895.46,0.19234 1343.2,0.14258 0.9366,-9.9616 0.4254,-19.975 0.2226,-29.957 -280.09,-0.16544 -560.18,-0.21669 -840.26,-0.18359 z m 0.72656,445.01 c -167.79,0.0253 -335.57,0.0569 -503.36,0.0918 -0.31993,15.998 -0.27768,32.001 -0.04492,48 446.65,0.22083 893.3,0.13389 1339.99996,0.0391 0.3052,-15.998 0.2631,-32.001 0.043,-48 -278.86,-0.12841 -557.72996,-0.16081 -836.58996,-0.13086 z"
       fill="#fe0000"
       id="path2"
       style="display:inline;fill:#ff0000" />
    <path
       d="m 869.38,392.46 c -269.76,0 -539.5,0.06 -809.26,0.16 -0.308,16.58 -0.308,33.17 0.005,49.76 539.5,0.21 1079,0.21 1618.5,0 0.3,-16.59 0.3,-33.18 0,-49.76 -269.7,-0.1 -539.5,-0.16 -809.22,-0.16 z m 0.01,61.26 c -269.75,0.01 -539.51,0.06 -809.26,0.12 -0.592,5.31 -0.18,10.67 -0.042,16.02 539.51,0.27 1079,0.16 1618.5,0.05 0.6,-5.32 0.1,-10.71 0.1,-16.02 -269.8,-0.13 -539.5,-0.17 -809.31,-0.17 z"
       transform="scale(0.8)"
       fill="#ffff00"
       id="path4"
       style="display:inline" />
  </g>
  <g
     inkscape:groupmode="layer"
     id="layer1"
     inkscape:label="wheel-decor"
     style="display:inline">
    <path
       d="m 496.878,610.84178 c -23.674,-0.32601 -43.55,25.479 -36.25,48.174 4.9276,18.72 25.299,31.981 44.422,27.568 21.972,-3.8496 37.007,-29.634 28.361,-50.504 -5.377,-14.858 -20.653,-25.675 -36.533,-25.238 z m 652.64,1.625 c -16.678,-0.1036 -32.314,11.947 -36.186,28.223 -4.2063,14.429 0.8242,31.19 13.174,40.057 19.209,16.613 53.594,5.8658 60.109,-18.645 8.528,-23.694 -12.179,-50.665 -37.098,-49.635 z m -917.47,0.0879 c -20.912,-0.12064 -38.794,19.574 -37.432,40.268 0.59248,18.639 16.498,35.522 35.414,35.881 16.709,1.2108 34.156,-8.993 39.043,-25.465 9.2873,-23.624 -11.969,-51.917 -37.025,-50.684 z m 651.28,1.543 c -23.19,0.76254 -41.886,26.106 -34.912,48.461 5.3545,22.374 33.577,35.1 53.865,24.096 16.079,-7.6146 24.674,-27.204 19.895,-44.27 -3.9508,-17.124 -21.459,-29.457 -38.848,-28.287 z"
       style="fill:#ffdd55"
       id="path1-6" />
  </g>
</svg>
